<svg width="20" height="20" viewBox="0 0 20 20" fill="none" xmlns="http://www.w3.org/2000/svg">
<g clip-path="url(#clip0_294_12046)">
<path fill-rule="evenodd" clip-rule="evenodd" d="M7.27114 6.44054C7.22859 6.44091 7.18593 6.44109 7.14317 6.44109C3.59277 6.44109 0.7146 5.16191 0.7146 3.58395C0.7146 2.00599 3.59277 0.726807 7.14317 0.726807C10.6936 0.726807 13.5717 2.00599 13.5717 3.58395C13.5717 4.09869 13.2655 4.58165 12.7295 4.99878C10.3909 5.01907 8.35841 5.59437 7.27114 6.44054Z" fill="#FFCA28"/>
<path d="M7.28987 6.4404C7.2411 6.44088 7.1922 6.44113 7.14317 6.44113C3.59277 6.44113 0.7146 5.16194 0.7146 3.58398V12.1554C0.7146 13.7268 3.57174 15.0126 7.14317 15.0126C10.7146 15.0126 13.5717 13.7268 13.5717 12.1554V10.7094C13.3372 10.7209 13.0989 10.7268 12.8575 10.7268C9.30706 10.7268 6.42888 9.44766 6.42888 7.8697C6.42888 7.34898 6.7423 6.86081 7.28987 6.4404Z" fill="#FFB300"/>
<path d="M12.7146 2.15547C11.0453 1.12529 9.10221 0.627059 7.14317 0.726893C3.58603 0.726893 0.7146 2.01261 0.7146 3.58404C0.7146 4.4269 1.54317 5.18404 2.85746 5.7269" stroke="#FAFAFA" stroke-width="1.5" stroke-linecap="round" stroke-linejoin="round"/>
<path d="M2.85746 14.2983C1.54317 13.7554 0.7146 12.9983 0.7146 12.1554V3.58398" stroke="#FAFAFA" stroke-width="1.5" stroke-linecap="round" stroke-linejoin="round"/>
<path d="M2.85746 10.0127C1.54317 9.46987 0.7146 8.71273 0.7146 7.86987" stroke="#FAFAFA" stroke-width="1.5" stroke-linecap="round" stroke-linejoin="round"/>
<path d="M12.8578 10.7143C16.4082 10.7143 19.2863 9.4351 19.2863 7.85714C19.2863 6.27919 16.4082 5 12.8578 5C9.30737 5 6.4292 6.27919 6.4292 7.85714C6.4292 9.4351 9.30737 10.7143 12.8578 10.7143Z" fill="#FFCA28"/>
<path d="M12.8578 10.7146C16.4082 10.7146 19.2863 9.43538 19.2863 7.85742V16.4288C19.2863 18.0003 16.4292 19.286 12.8578 19.286C9.28634 19.286 6.4292 18.0003 6.4292 16.4288V7.85742C6.4292 9.43538 9.30737 10.7146 12.8578 10.7146Z" fill="#FFB300"/>
<path d="M12.8578 10.7143C16.4082 10.7143 19.2863 9.4351 19.2863 7.85714C19.2863 6.27919 16.4082 5 12.8578 5C9.30737 5 6.4292 6.27919 6.4292 7.85714C6.4292 9.4351 9.30737 10.7143 12.8578 10.7143Z" stroke="#FAFAFA" stroke-width="1.5" stroke-linecap="round" stroke-linejoin="round"/>
<path d="M6.4292 7.85742V16.4288C6.4292 18.0003 9.28634 19.286 12.8578 19.286C16.4292 19.286 19.2863 18.0003 19.2863 16.4288V7.85742" stroke="#FAFAFA" stroke-width="1.5" stroke-linecap="round" stroke-linejoin="round"/>
<path d="M19.2863 12.1431C19.2863 13.7145 16.4292 15.0002 12.8578 15.0002C9.28634 15.0002 6.4292 13.7145 6.4292 12.1431" stroke="#FAFAFA" stroke-width="1.5" stroke-linecap="round" stroke-linejoin="round"/>
</g>
<defs>
<clipPath id="clip0_294_12046">
<rect width="20" height="20" fill="white"/>
</clipPath>
</defs>
</svg>
