<svg width="16" height="16" viewBox="0 0 16 16" fill="none" xmlns="http://www.w3.org/2000/svg">
<path d="M5.80939 7.4762C7.3216 7.4762 8.54749 6.25031 8.54749 4.7381C8.54749 3.22589 7.3216 2 5.80939 2C4.29718 2 3.07129 3.22589 3.07129 4.7381C3.07129 6.25031 4.29718 7.4762 5.80939 7.4762Z" stroke="#E8EAF6" stroke-width="1.5" stroke-linecap="round" stroke-linejoin="round"/>
<path d="M0.880859 15.1428H5.80944H10.738V14.5491C10.7293 13.7143 10.5091 12.8953 10.0981 12.1687C9.68706 11.442 9.09855 10.8314 8.38756 10.3939C7.67655 9.95631 6.86625 9.70612 6.03234 9.66664C5.958 9.66313 5.88367 9.66129 5.80944 9.66113C5.7352 9.66129 5.66088 9.66313 5.58654 9.66664C4.75263 9.70612 3.94233 9.95631 3.23132 10.3939C2.52032 10.8314 1.93182 11.442 1.52078 12.1687C1.10974 12.8953 0.889579 13.7143 0.880859 14.5491V15.1428Z" stroke="#E8EAF6" stroke-width="1.5" stroke-linecap="round" stroke-linejoin="round"/>
<path d="M10.1902 7.4762C11.7024 7.4762 12.9283 6.25031 12.9283 4.7381C12.9283 3.22589 11.7024 2 10.1902 2" stroke="#E8EAF6" stroke-width="1.5" stroke-linecap="round" stroke-linejoin="round"/>
<path d="M12.9285 15.143H15.119V14.5492C15.1102 13.7144 14.8901 12.8954 14.479 12.1688C14.068 11.4421 13.4795 10.8315 12.7685 10.394C12.3089 10.1111 11.8077 9.90657 11.2856 9.78662" stroke="#E8EAF6" stroke-width="1.5" stroke-linecap="round" stroke-linejoin="round"/>
</svg>
